Coordinates
version=1
nRows=8
nColumns=40
inDegrees=yes

Units are S.I. units (second, meters, Newtons, ...)
Angles are in degrees.

endheader
time	pelvis_tilt	pelvis_list	pelvis_rotation	pelvis_tx	pelvis_ty	pelvis_tz	hip_flexion_r	hip_adduction_r	hip_rotation_r	knee_angle_r	knee_angle_r_beta	ankle_angle_r	subtalar_angle_r	mtp_angle_r	hip_flexion_l	hip_adduction_l	hip_rotation_l	knee_angle_l	knee_angle_l_beta	ankle_angle_l	subtalar_angle_l	mtp_angle_l	lumbar_extension	lumbar_bending	lumbar_rotation	arm_flex_r	arm_add_r	arm_rot_r	elbow_flex_r	pro_sup_r	wrist_flex_r	wrist_dev_r	arm_flex_l	arm_add_l	arm_rot_l	elbow_flex_l	pro_sup_l	wrist_flex_l	wrist_dev_l
     48.54592857	     -6.44988470	     -4.66970527	     12.70762236	      1.05090371	      0.91798887	      0.53737290	      8.33464874	      4.73584992	    -16.85780850	     18.39113496	     18.39113496	     18.26909803	     -6.89206223	     -1.40423581	     30.35478914	     -8.98289563	      1.21151374	     17.06090948	     17.06090948	      3.51014199	      0.20922533	      3.97853373	     -9.13984932	      5.46428907	      4.64718076	     54.53067977	    -20.83945468	     -7.93250073	     81.67476032	     44.93835825	      0.00000000	      0.00000000	    -20.24324431	     -9.27828559	     35.17316088	     34.03168272	     42.61932389	      0.00000000	      0.00000000
     48.56685714	     -6.53129554	     -4.83577996	     12.61987605	      1.05135851	      0.91738260	      0.53444248	      7.86761851	      4.84785227	    -16.70834125	     17.95536055	     17.95536055	     18.35272996	     -6.76482354	     -1.55066637	     30.07096166	     -8.86298772	      1.67980751	     16.97467563	     16.97467563	      2.49372737	     -0.42990974	      1.76748715	     -9.01470093	      5.39882247	      4.70022051	     54.40351625	    -20.44544314	     -7.93271950	     82.06390484	     44.95725638	      0.00000000	      0.00000000	    -19.84555979	     -9.48417378	     35.31133755	     33.87950699	     42.76058960	      0.00000000	      0.00000000
     48.58778571	     -6.63060921	     -4.95336750	     12.46128313	      1.05190356	      0.91680756	      0.53140824	      7.50943625	      4.85506926	    -16.53174850	     17.74253011	     17.74253011	     18.51161944	     -6.63517530	     -1.56241437	     30.00258933	     -8.79741596	      1.87325032	     17.45176413	     17.45176413	      2.42358686	     -0.66145407	      1.49821023	     -8.89909612	      5.25345278	      4.75801239	     54.13950830	    -20.05008188	     -7.85330447	     82.12403131	     44.95361974	      0.00000000	      0.00000000	    -19.39349919	     -9.72726634	     35.23955023	     33.88404132	     42.78504045	      0.00000000	      0.00000000
     48.60871429	     -6.73919172	     -5.05361238	     12.26153336	      1.05258299	      0.91638304	      0.52816872	      7.20368478	      4.81168375	    -16.27455915	     17.63944695	     17.63944695	     18.65426661	     -6.49608698	     -1.59382445	     29.86897347	     -8.74418058	      2.01855150	     17.86159529	     17.86159529	      2.41908340	     -0.87620252	      1.30763336	     -8.78154545	      5.11192127	      4.76560739	     53.81817674	    -19.67101577	     -7.74535903	     82.12558655	     44.94921509	      0.00000000	      0.00000000	    -18.81436130	    -10.00043776	     35.14425632	     33.91943340	     42.80666094	      0.00000000	      0.00000000
     48.62964286	     -6.77260033	     -5.12414118	     11.97643871	      1.05347792	      0.91625441	      0.52479799	      6.76833893	      4.74086892	    -16.08651912	     17.46961240	     17.46961240	     18.66385413	     -6.33172439	     -1.55812471	     29.78454782	     -8.71193209	      2.12662213	     18.59309046	     18.59309046	      2.47859065	     -1.44835740	      0.97080024	     -8.76810081	      4.95908111	      4.83385804	     53.22001596	    -19.14470657	     -7.62139487	     82.08841834	     44.94465671	      0.00000000	      0.00000000	    -18.17566296	    -10.32728307	     35.02958426	     33.92175663	     42.83306068	      0.00000000	      0.00000000
     48.65057143	     -6.79579985	     -5.39885274	     11.76081172	      1.05437303	      0.91616863	      0.52103167	      6.24702814	      4.87576158	    -16.04243511	     17.06599034	     17.06599034	     18.53826960	     -5.97025115	     -1.48256454	     29.87241317	     -8.73606526	      2.82746877	     19.47773528	     19.47773528	      2.28574187	     -2.87650506	      0.03217972	     -8.71360386	      5.09001704	      4.95085459	     52.58745542	    -18.77003743	     -7.98909775	     82.24224128	     44.95601330	      0.00000000	      0.00000000	    -17.54432442	    -10.49428256	     34.86840990	     33.67867801	     42.89511269	      0.00000000	      0.00000000
     48.67150000	     -6.85382457	     -5.38284300	     11.40030331	      1.05540192	      0.91645656	      0.51715990	      5.85444538	      4.64066395	    -15.77027860	     16.99568104	     16.99568104	     18.50493931	     -5.75034011	     -1.47736428	     29.67043675	     -8.62434568	      2.77445444	     19.99901214	     19.99901214	      2.48703598	     -3.45337340	     -0.24644909	     -8.70376591	      4.90585807	      4.98559808	     51.88458016	    -18.37191766	     -7.87190769	     82.05265031	     44.95672655	      0.00000000	      0.00000000	    -16.79756657	    -10.83351401	     34.71527985	     33.68752746	     42.92988997	      0.00000000	      0.00000000
     48.69242857	     -6.90709068	     -5.41498043	     11.00953097	      1.05647380	      0.91688606	      0.51314545	      5.41954992	      4.44400397	    -15.57903034	     16.82633225	     16.82633225	     18.37056495	     -5.40033942	     -1.45450357	     29.54045871	     -8.53797590	      2.82094095	     20.62296450	     20.62296450	      2.77100803	     -4.25252267	     -0.49508684	     -8.69279796	      4.77951113	      5.10529962	     51.12440481	    -18.05967697	     -7.78921117	     81.70702889	     44.96386612	      0.00000000	      0.00000000	    -15.98426593	    -11.17421167	     34.51835013	     33.68792022	     42.97318543	      0.00000000	      0.00000000
